PathFileType	4	(X/Y/Z)	Kaydara	
DataRate	CameraRate	NumFrames	NumMarkers	Units	OrigDataRate	OrigDataStartFrame	OrigNumFrames	
60.00	60.00	4	74	mm	60.00	974	121	
Frame#	Time	Z_lasi			Z_rasi			Z_rpsi			Z_lpsi			Z_fneck			Z_bneck			Z_fhead			Z_rhead			Z_lhead			Z_rshld			Z_relbtop			Z_relbext			Z_relblow			Z_rwrext			Z_rwrtop			Z_rwrlow			Z_lshld			Z_lelbext			Z_lelblow			Z_lelbtop			Z_lwrext			Z_lwrtop			Z_lwrlow			Z_rtopleg			Z_ltopleg			Z_rkneefr			Z_rkneebk			Z_rkneeis			Z_lkneefr			Z_lknssbk			Z_lkneeis			Z_rankfr			Z_rankis			Z_rankbk			Z_lankfr			Z_lankbk			Z_lankis			A_lasi			A_rasi			A_rpsi			A_lpsi			A_fneck			A_bneck			A_fhead			A_rhead			A_lhead			A_rshld			A_relbtop			A_relbext			A_relblow			A_rwrext			A_rwrtop			A_rwrlow			A_lshld			A_lelbext			A_lelblow			A_lelbtop			A_lwrext			A_lwrtop			A_lwrlow			A_rtopleg			A_ltopleg			A_rkneefr			A_rkneebk			A_rkneeis			A_lkneefr			A_lknssbk			A_lkneeis			A_rankfr			A_rankis			A_rankbk			A_lankfr			A_lankbk			A_lankis			
		X1	Y1	Z1	X2	Y2	Z2	X3	Y3	Z3	X4	Y4	Z4	X5	Y5	Z5	X6	Y6	Z6	X7	Y7	Z7	X8	Y8	Z8	X9	Y9	Z9	X10	Y10	Z10	X11	Y11	Z11	X12	Y12	Z12	X13	Y13	Z13	X14	Y14	Z14	X15	Y15	Z15	X16	Y16	Z16	X17	Y17	Z17	X18	Y18	Z18	X19	Y19	Z19	X20	Y20	Z20	X21	Y21	Z21	X22	Y22	Z22	X23	Y23	Z23	X24	Y24	Z24	X25	Y25	Z25	X26	Y26	Z26	X27	Y27	Z27	X28	Y28	Z28	X29	Y29	Z29	X30	Y30	Z30	X31	Y31	Z31	X32	Y32	Z32	X33	Y33	Z33	X34	Y34	Z34	X35	Y35	Z35	X36	Y36	Z36	X37	Y37	Z37	X38	Y38	Z38	X39	Y39	Z39	X40	Y40	Z40	X41	Y41	Z41	X42	Y42	Z42	X43	Y43	Z43	X44	Y44	Z44	X45	Y45	Z45	X46	Y46	Z46	X47	Y47	Z47	X48	Y48	Z48	X49	Y49	Z49	X50	Y50	Z50	X51	Y51	Z51	X52	Y52	Z52	X53	Y53	Z53	X54	Y54	Z54	X55	Y55	Z55	X56	Y56	Z56	X57	Y57	Z57	X58	Y58	Z58	X59	Y59	Z59	X60	Y60	Z60	X61	Y61	Z61	X62	Y62	Z62	X63	Y63	Z63	X64	Y64	Z64	X65	Y65	Z65	X66	Y66	Z66	X67	Y67	Z67	X68	Y68	Z68	X69	Y69	Z69	X70	Y70	Z70	X71	Y71	Z71	X72	Y72	Z72	X73	Y73	Z73	X74	Y74	Z74	

46	16.217	-213.67300	1081.32065	703.89862	-276.30798	1085.20973	504.05071	-109.77144	1111.26503	412.42661	-26.37685	1100.12794	644.86710	-215.58849	1441.95129	589.55879	-116.26655	1517.88239	593.72002	-344.72534	1598.25653	566.17138	-195.29659	1657.22198	514.96563	-210.70118	1644.47510	661.50658	-156.50113	1443.99323	385.38353	-186.35654	1132.52792	282.48440	-183.98920	1115.02853	345.30842	-235.53421	1195.29198	313.37103	-422.36439	1120.74913	409.95922	-430.07114	1158.50807	383.79559	-411.60378	1184.63951	411.95908	-118.85556	1442.21649	775.27733	-143.36557	1120.97618	803.29231	-209.60766	1158.94981	854.92744	-144.54188	1146.42860	871.12953	-308.47357	916.30241	869.81743	-299.26556	906.56693	915.73906	-253.90530	895.41504	907.80899	-171.46437	923.51860	375.73860	-121.34508	895.06187	738.99612	-247.69043	421.51482	414.33372	-178.87402	452.21684	363.53935	-181.79642	427.84309	487.17293	-181.88820	447.98855	695.57907	-76.53261	472.05635	677.00340	-176.24777	444.48536	602.30053	-205.65138	180.80658	381.82671	-181.20794	173.83390	443.33626	-129.06324	173.69862	373.00129	-121.97376	162.93022	681.05850	-67.06677	166.03954	620.26955	-147.25223	174.43657	613.77106	-975.14595	1033.78342	475.05032	-965.55008	1039.39514	634.37366	-1124.92836	1033.80333	652.89200	-1099.67819	1039.78699	469.86881	-1054.26956	1375.96817	571.97205	-1186.57799	1421.45111	568.03978	-972.92397	1566.24237	570.61852	-1116.62186	1567.10083	665.09827	-1127.99049	1565.29144	502.05605	-1116.65871	1353.29086	747.78656	-963.30551	1115.73692	739.80087	-1000.69687	1067.96448	717.24213	-961.33728	1124.85550	683.60344	-738.42209	1074.13986	658.84453	-737.83012	1089.81606	701.94611	-747.15698	1125.63049	685.94574	-1090.62332	1354.28986	394.48849	-1102.15225	1041.75064	370.95322	-1034.98390	1054.27994	395.11913	-1059.85451	1050.94261	346.71055	-994.61388	830.98183	385.33787	-996.58508	831.43272	343.87581	-953.95638	843.73833	355.44411	-1064.95628	875.85648	733.18146	-1027.86766	889.27521	397.23629	-1023.81126	451.99959	641.86066	-1131.69968	487.16469	686.15547	-1110.66650	486.72508	568.04760	-1008.20274	463.89915	509.93858	-1093.11974	480.47756	414.25240	-1115.77621	479.88262	538.31348	-1098.05954	166.31929	663.71178	-1130.98022	163.42897	597.71446	-1179.58168	155.07868	666.49429	-1066.35544	166.19818	457.32010	-1127.42836	168.65252	421.68835	-1125.95177	173.68763	511.20003 
47	16.233	-210.87234	1080.92659	703.41110	-277.76178	1085.42847	505.66795	-111.89728	1111.09238	412.44377	-26.18219	1099.83276	644.18129	-214.24459	1442.80106	589.93973	-114.01850	1517.70950	593.07877	-341.76746	1600.60333	566.03558	-191.81122	1657.53723	514.03934	-207.03815	1645.74570	660.78423	-157.80803	1444.22989	385.47615	-192.29321	1133.40858	282.71221	-189.22611	1115.68405	345.44422	-240.62866	1196.19102	314.54069	-426.51619	1120.95978	413.03650	-434.67125	1158.83812	387.20284	-415.95352	1184.93195	415.26558	-114.47853	1442.08344	774.66690	-138.28321	1121.03004	804.98291	-203.24816	1158.99612	858.00575	-137.84298	1147.09518	872.71118	-297.17176	914.23027	879.36523	-286.82661	905.80048	925.21637	-241.65144	895.33386	916.52565	-173.47574	923.47351	376.28098	-121.10707	895.11642	739.12788	-248.44717	421.40709	414.83749	-179.67724	452.13745	363.95939	-182.19191	427.76031	487.44324	-181.93529	447.93449	695.86876	-76.65299	472.00386	677.07321	-176.52430	444.45629	602.58709	-205.96964	180.71873	382.09938	-181.29742	173.77136	443.53230	-129.28899	173.75948	373.09811	-121.78411	162.85488	680.99380	-66.96248	166.13867	620.04768	-147.30618	174.43319	613.86257	-975.20195	1033.67828	475.13439	-965.48309	1039.29817	634.44386	-1124.79080	1033.84956	652.92397	-1099.73053	1039.85481	469.99622	-1053.60771	1376.23703	571.99116	-1186.12717	1420.92407	567.90771	-973.32687	1567.48459	570.83210	-1117.31178	1567.03568	664.98009	-1128.19206	1565.10559	501.90323	-1116.07018	1353.53271	747.95624	-963.03032	1115.73570	739.66354	-1000.54604	1067.94304	717.57439	-961.30600	1124.78699	683.57925	-738.23868	1074.61288	658.14163	-737.66563	1090.84679	701.17455	-747.20123	1126.74950	684.91890	-1090.05486	1354.36020	394.49471	-1102.21893	1041.78123	371.04046	-1034.91066	1054.27460	395.18337	-1059.80736	1050.95856	346.77498	-994.85268	831.00060	385.40890	-996.77284	831.37794	343.92815	-954.10538	843.66455	355.45971	-1065.05821	875.85342	733.23341	-1027.97112	889.24774	397.26727	-1023.87138	452.02553	641.90544	-1131.74049	487.14916	686.20575	-1110.75493	486.73088	568.10543	-1008.31406	463.89675	510.02007	-1093.18604	480.49789	414.27353	-1115.82458	479.88728	538.33179	-1098.06152	166.32320	663.70949	-1130.98930	163.43285	597.76306	-1179.64226	155.08396	666.53191	-1066.37817	166.22358	457.32143	-1127.45674	168.64435	421.70544	-1125.96115	173.68198	511.19736 
48	16.250	-210.38376	1081.06201	704.22363	-278.88359	1085.51300	507.07878	-113.90271	1110.85510	412.48207	-26.04602	1099.49120	643.42369	-212.93242	1443.35510	590.23430	-112.31606	1517.56439	592.61204	-339.18934	1602.46841	566.02287	-188.90108	1657.80594	513.37669	-203.58459	1646.81763	660.15701	-159.26956	1444.56451	385.57758	-197.76438	1134.31091	282.72921	-193.74550	1116.43852	345.23964	-245.28400	1197.17102	315.57503	-430.38441	1121.00197	416.12118	-438.77804	1158.88229	390.28202	-419.91142	1184.95361	418.17444	-110.88873	1441.83716	774.16100	-131.96776	1121.54312	806.26396	-196.71507	1158.92403	860.84755	-130.67039	1147.71027	874.09172	-285.53383	912.25380	887.32597	-274.32819	904.95522	933.14812	-229.53333	895.68497	924.33418	-175.42994	923.40248	376.77364	-120.87928	895.12306	739.29985	-248.97808	421.19362	415.33871	-180.44209	452.13375	364.18789	-182.92351	427.77630	487.95288	-181.98378	447.89749	696.11214	-76.62261	472.01942	676.94839	-176.82739	444.44157	602.88292	-206.16627	180.65434	382.27188	-181.33106	173.70152	443.67222	-129.51299	173.81268	373.17127	-121.53467	162.77433	680.90279	-66.94322	166.20726	619.87934	-147.34705	174.46079	613.97049	-975.22522	1033.60207	475.17529	-965.28549	1039.24370	634.41277	-1124.86809	1034.02359	653.03551	-1099.75166	1039.94446	470.08892	-1052.75322	1376.59225	571.98074	-1185.68985	1420.23331	567.74174	-973.76801	1568.92654	570.92533	-1117.92320	1566.97250	664.89059	-1128.47916	1564.84482	501.77998	-1115.10178	1353.82919	747.92091	-962.54944	1115.79597	739.55055	-1000.15388	1067.93816	717.73895	-961.10519	1124.71558	683.48717	-737.95654	1075.21103	657.57286	-737.53342	1092.08656	700.30640	-747.44240	1127.57835	683.41644	-1089.43382	1354.48090	394.50050	-1102.10518	1041.87569	371.13129	-1034.76051	1054.27879	395.21206	-1059.72504	1051.00189	346.84238	-995.06683	831.02654	385.45525	-996.97754	831.30203	344.01344	-954.29359	843.56575	355.46661	-1065.17555	875.88394	733.30963	-1028.09486	889.23943	397.33051	-1023.98315	452.03102	641.98616	-1131.84235	487.16755	686.29082	-1110.87341	486.74686	568.17719	-1008.40088	463.96412	510.04490	-1093.26500	480.50945	414.32915	-1115.89371	479.88674	538.38398	-1098.06923	166.31420	663.73108	-1131.00128	163.45253	597.77161	-1179.68826	155.08578	666.57310	-1066.39320	166.23537	457.32525	-1127.46574	168.65135	421.71268	-1125.95963	173.67470	511.19625 
49	16.267	-209.80524	1081.08032	704.96078	-280.07710	1085.82962	508.59474	-115.65154	1110.62820	412.35863	-26.14141	1099.23058	642.63229	-211.92263	1443.85315	590.48134	-110.90803	1517.36237	592.16949	-337.07329	1604.05914	566.16680	-186.53107	1658.12363	513.08815	-200.93899	1647.48856	659.91104	-160.73456	1444.88693	385.69588	-202.82812	1135.38536	282.69186	-198.16006	1117.16286	345.08430	-249.78928	1198.11295	316.57263	-433.65475	1120.81863	418.83492	-442.81479	1158.63998	393.25405	-423.70129	1184.72580	421.15265	-107.61732	1441.76376	773.61168	-125.37633	1121.85951	807.49268	-189.90517	1158.79684	863.27789	-123.46027	1148.31802	875.25589	-273.68814	910.35004	893.64510	-261.89646	904.09721	939.44115	-217.00209	895.56564	930.53650	-177.13512	923.21838	377.13001	-120.74521	895.09331	739.42131	-249.38282	420.94540	415.66326	-181.19528	452.14626	364.41429	-183.71889	427.72655	488.42522	-181.95513	447.91733	696.31248	-76.73069	472.01393	676.97044	-177.09740	444.41174	603.10432	-206.30827	180.55775	382.36767	-181.39418	173.60586	443.70575	-129.71805	173.84895	373.20717	-121.47113	162.80804	680.88455	-66.95522	166.27819	619.76967	-147.43156	174.46793	614.06136	-975.30136	1033.49525	475.23464	-965.10147	1039.20364	634.35310	-1124.82704	1034.24500	653.07632	-1099.82712	1040.04578	470.16251	-1051.80725	1377.05414	571.92604	-1185.26161	1419.35547	567.60162	-974.54605	1570.83908	571.12038	-1119.05190	1566.67999	664.86046	-1128.93265	1564.56512	501.74553	-1114.12827	1354.08722	747.81845	-962.04536	1115.92430	739.45381	-999.66202	1068.11119	718.12187	-960.82352	1124.68246	683.43193	-737.49405	1075.95230	657.28676	-737.24106	1093.90846	699.45183	-747.74055	1128.82240	681.59645	-1088.75610	1354.57443	394.45335	-1102.01256	1041.98387	371.20461	-1034.60854	1054.28513	395.19356	-1059.60022	1051.04248	346.85509	-995.26321	830.97099	385.55000	-997.18475	831.21574	344.08089	-954.54735	843.43712	355.50747	-1065.35507	875.90767	733.41415	-1028.61473	889.50432	397.34913	-1024.06860	452.06059	642.02385	-1131.92886	487.14622	686.35620	-1110.99754	486.77223	568.25966	-1008.50914	463.99387	510.08057	-1093.40233	480.52074	414.40464	-1115.98526	479.87244	538.41999	-1098.09425	166.33904	663.76106	-1131.03409	163.45940	597.80128	-1179.70787	155.07711	666.62918	-1066.40930	166.27813	457.32975	-1127.48596	168.66901	421.72432	-1125.95436	173.65356	511.19526 
